<?xml version="1.0" encoding="utf-8"?>
<!-- Generator: Adobe Illustrator 24.0.1, SVG Export Plug-In . SVG Version: 6.00 Build 0)  -->
<svg version="1.1" id="Camada_1" xmlns="http://www.w3.org/2000/svg" xmlns:xlink="http://www.w3.org/1999/xlink" x="0px" y="0px"
	 viewBox="0 0 300 300" style="enable-background:new 0 0 300 300;" xml:space="preserve">
<style type="text/css">
	.st0{fill:#FFFFFF;}
</style>
<path class="st0" d="M283.72,264.72c-6.5-3.9-9.56-11.18-8.29-18.65c1.07-6.27,3.94-11.76,7.16-17.11
	c13.82-23,17.77-47.67,12.17-73.82c-9.84-45.9-54.32-79.45-100.95-76.18c-3.53,0.25-5.32-0.63-7.06-3.79
	c-20.71-37.59-61.98-57.22-103.89-48.94c-72.32,14.28-99.15,92.26-66.04,147.52c2.74,4.57,5.34,9.18,6.84,14.35
	c2.88,9.95,0.29,17.13-8.37,22.79c-2.01,1.31-3.01,2.99-2.8,5.38c0.28,3.18,2.49,4.88,6.54,4.88c26.28,0.01,52.57,0.02,78.85-0.01
	c3.05,0,6.14-0.07,9.14-0.53c2.97-0.45,4.5,0.43,6.15,3.09c20.77,33.44,50.89,50.83,90.29,51.8c11.89,0.29,23.79,0.05,35.69,0.05
	c13.82,0,27.64-0.03,41.46,0.03c3.11,0.01,5.75-0.67,6.65-3.97C288.15,268.37,286.47,266.37,283.72,264.72z M69.78,106.95
	c10.41-0.01,20.82,0,31.24,0s20.82-0.01,31.24,0c4.34,0.01,6.77,1.94,6.82,5.35c0.06,3.43-2.41,5.52-6.66,5.52
	c-20.94,0.01-41.87,0.01-62.81,0c-4.27,0-6.7-2.07-6.65-5.52C63.01,108.87,65.43,106.95,69.78,106.95z M101.04,145.01
	c-10.53,0-21.05,0.02-31.58-0.01c-4.05-0.01-6.44-2.01-6.5-5.33c-0.07-3.35,2.32-5.53,6.29-5.53c21.16-0.02,42.33,0,63.49-0.03
	c2.6,0,4.66,0.75,5.83,3.22c0.98,2.07,0.61,3.99-0.78,5.7c-1.32,1.64-3.15,1.99-5.17,1.98
	C122.09,144.99,111.56,145.01,101.04,145.01z M268.44,264.55c-24.1,0-47.71,0.97-71.21-0.24c-31.45-1.62-55.87-16.61-73.1-43.12
	c-1.54-2.37-1.56-3.16,1.48-4.18c36.59-12.26,61.46-36.09,71.44-73.95c4.38-16.61,2.83-33.24-2.24-49.56
	c-1.22-3.94-1.24-4.01,2.92-4.02c37.89-0.12,70.07,21.59,83.35,57.38c9.69,26.12,6.99,51.37-7.15,75.35
	c-3.7,6.27-7.04,12.65-8.43,19.88C264.02,249.74,264.35,257.18,268.44,264.55z"/>
</svg>
