<?xml version="1.0" encoding="utf-8"?>
<!-- Generator: Adobe Illustrator 24.0.1, SVG Export Plug-In . SVG Version: 6.00 Build 0)  -->
<svg version="1.1" id="Camada_1" xmlns="http://www.w3.org/2000/svg" xmlns:xlink="http://www.w3.org/1999/xlink" x="0px" y="0px"
	 viewBox="0 0 300 300" style="enable-background:new 0 0 300 300;" xml:space="preserve">
<style type="text/css">
	.st0{fill:#FFFFFF;}
	.st1{fill:#C17663;}
	.st2{fill:#8198A4;}
	.st3{fill:#D7A597;}
</style>
<g>
	<path class="st0" d="M71.6,118.6c-6.1-5.6-10.8-12-12.7-20.2c-0.4-1.7-0.6-3.4-0.6-5.1c0-0.8-0.3-1.1-0.9-1.4
		c-4.6-2.3-8.9-5-12.7-8.3c-3.5-3-6.5-6.5-8.5-10.6c-3.7-7.3-3.6-14.6,0.1-21.9c2.4-4.7,6-8.5,10.1-11.7c6-4.7,12.7-8.1,19.8-10.7
		c6.9-2.5,13.9-4.2,21.2-5.3c7.6-1.1,15.1-1.6,22.8-1.3c13.3,0.4,26.3,2.6,38.8,7.5c3.6,1.4,7.1,3.1,10.5,5.1
		c-0.3,0.4-0.8,0.5-1.1,0.6c-5.9,2.3-11.5,5.1-16.7,8.8c-4.7,3.4-8.8,7.3-11.9,12.2c-2.6,4.2-4.2,8.8-4.2,13.8
		c-0.1,3.9,0.8,7.7,2.4,11.3c2,4.4,4.9,8,8.4,11.3c1.5,1.4,3,2.7,4.7,3.9c0.2,0.2,0.6,0.3,0.8,0.7c-12,3.7-24.2,5.2-36.7,5.1
		c-12.4-0.1-24.6-1.9-36.5-5.8c-0.4,1.2-0.4,2.3-0.5,3.5c-0.3,6,1.1,11.7,3.4,17.2c0.2,0.4,0.3,0.7,0.4,1.1
		C72,118.6,71.9,118.7,71.6,118.6z"/>
	<path class="st0" d="M149.6,273.3c-5.6-0.1-11.7-0.4-17.8-1.1c-15.8-1.8-31.2-5.2-46.4-10c-1.7-0.5-1.8-0.6-1.5-2.3
		c0.7-4.9,1.5-9.7,2.6-14.5c1-4.6,2.1-9.1,3.8-13.5c1.1-3,2.8-5.6,5.2-7.8c6.4-5.9,13.4-11.1,20.8-15.6c0.8-0.5,0.8-0.5,1.5,0.2
		c6.4,6.2,13.9,10.5,22.6,12.2c15.9,3.1,29.8-0.9,41.7-12c1.1-1,1.1-1,2.3-0.3c7.6,4.7,14.8,10,21.3,16.2c1.9,1.8,3.2,4,4.2,6.4
		c1.8,4.5,3,9.1,4,13.8c1.1,5.1,2.1,10.3,2.8,15.6c0.2,1.4,0.1,1.2-1,1.5c-7.8,2.6-15.6,4.6-23.6,6.4c-6,1.3-12.1,2.4-18.3,3.3
		C165.8,272.6,158,273.2,149.6,273.3z"/>
	<path class="st0" d="M149.9,135.1c23.5,0.1,40.8,19.2,40.9,40.7c0.1,21.7-17.4,41-40.9,41c-23.3,0-41-19-40.9-41.1
		C109.1,154,126.7,135.2,149.9,135.1z"/>
	<path class="st0" d="M229.7,133.7c18.8,0,34.1,15.3,34.1,34.1c0,18.8-15.3,34.1-34.2,34.1c-18.3,0-34-14.7-34.1-34.1
		C195.5,148.7,211,133.7,229.7,133.7z"/>
	<path class="st0" d="M70.1,133.9c19.2,0.1,34.1,15.5,34.2,33.9c0.1,18.9-15.1,34.3-33.9,34.4c-18.4,0.1-34.3-14.7-34.3-34
		C36,149.2,51.3,134,70.1,133.9z"/>
	<path class="st0" d="M188.2,205c0-0.3,0.2-0.3,0.4-0.5c4-3.2,8.1-6.2,12.5-8.9c0.6-0.4,0.9-0.3,1.4,0.2c5.9,5.7,12.8,9.3,20.9,10.5
		c12.6,1.9,23.7-1.5,33.1-10.1c1.2-1.1,1.2-1.1,2.5-0.3c6,3.7,11.6,7.9,16.8,12.7c1.9,1.8,3.3,3.8,4.2,6.2c1.5,3.8,2.5,7.8,3.3,11.8
		c0.8,3.8,1.5,7.6,2.1,11.5c0.3,1.7,0.3,1.7-1.4,2.2c-10.3,3.3-20.8,5.8-31.6,7.4c-9,1.4-18,2.1-27.1,1.8c-1.6-0.1-3.2-0.2-4.8-0.2
		c-0.7,0-0.9-0.3-1.1-1c-1-5.4-2.2-10.7-4-15.9c-0.3-0.7-0.5-1.5-0.8-2.2c-1.4-3.8-3.5-7-6.5-9.8c-5.9-5.4-12.3-10.3-19-14.6
		C188.8,205.5,188.4,205.4,188.2,205z"/>
	<path class="st0" d="M111.9,205.1c-1.4,1-2.9,1.9-4.3,2.9c-5.8,4-11.4,8.4-16.5,13.3c-2.3,2.2-3.9,4.9-5.1,7.8
		c-1.9,4.7-3.2,9.6-4.3,14.6c-0.4,1.6-0.7,3.2-1,4.8c-0.2,0.9-0.2,0.9-1.2,1c-4.8,0.3-9.7,0.4-14.5,0.2c-16.7-0.8-33-4.1-48.9-9.2
		c-0.3-0.1-0.5-0.2-0.8-0.2c-0.5-0.1-0.7-0.3-0.6-0.9c1.2-8.2,2.6-16.3,5.5-24.2c0.9-2.5,2.3-4.5,4.3-6.3c5.3-4.8,11-9.1,17.1-12.9
		c0.8-0.5,0.8-0.5,1.5,0.2c5.1,4.9,11,8.3,17.9,9.8c13.8,3.1,26-0.2,36.4-9.8c0.1-0.1,0.3-0.3,0.4-0.4c0.3-0.3,0.6-0.3,0.9-0.1
		c4.6,2.8,9,5.9,13.2,9.4C111.9,205,111.9,205.1,111.9,205.1z"/>
	<path class="st1" d="M71.6,118.6c0.1-0.1,0.2-0.2,0.3-0.3c0.2,0.1,0.2,0.3,0.3,0.5c0.1,0.1,0,0.2,0,0.3
		C71.9,119,71.7,118.8,71.6,118.6z"/>
	<path class="st2" d="M247.4,127.2c0.1,0,0.2,0,0.3,0c-0.1,0.2-0.1,0.5-0.4,0.3C247.1,127.4,247.2,127.2,247.4,127.2z"/>
	<path class="st3" d="M72.2,119.1c0-0.1,0-0.2,0-0.3c0.1,0.1,0.2,0.2,0.1,0.3C72.3,119.3,72.2,119.2,72.2,119.1z"/>
	<path class="st0" d="M247.4,127.2c0.9-2.9,1.7-5.8,2.3-8.7c1.1-6,1.2-12.1-0.6-18c0-0.1-0.1-0.2-0.1-0.3c-0.5-1.4-0.4-1.1-1.5-0.6
		c-7.2,3.1-14.7,5.2-22.4,6.6c-7.6,1.4-15.3,2-23,2c-12.8,0-25.4-1.7-37.6-5.8c-7.3-2.4-14.3-5.7-20.5-10.3
		c-3.2-2.4-6.1-5.1-8.5-8.4c-1.9-2.7-3.4-5.6-4.1-8.9c-1-4.8-0.2-9.4,2-13.7c2.3-4.4,5.7-7.9,9.5-11c5.6-4.4,12-7.6,18.7-10.1
		c7.3-2.7,14.9-4.5,22.7-5.6c7.9-1.1,15.9-1.5,23.9-1.1c13.2,0.6,26.1,2.9,38.4,8c5.9,2.4,11.4,5.5,16.3,9.6c3,2.5,5.7,5.4,7.7,8.8
		c4.2,7.3,4.2,14.6-0.1,21.9c-2.5,4.2-5.9,7.4-9.7,10.3c-1,0.7-1.9,1.4-2.9,2c-0.7,0.4-0.8,0.8-0.7,1.5c0.5,2.5,0.6,5,0.5,7.6
		c-0.2,4.9-1.5,9.6-3.6,14.1c-1.7,3.6-3.8,7-6.4,10.1C247.5,127.3,247.5,127.3,247.4,127.2z M207,64.3c-3.2-1.7-8.6-0.4-8.8,5.4
		c-0.1,2.9,1.4,5.2,3.9,6.1c3.3,1.2,7.8-0.5,8-5.8C210,67.4,208.9,65.3,207,64.3z M227.4,64.3c-3.2-1.6-8-0.3-8.7,4.6
		c-0.6,4.2,2.4,8.1,7.2,7.1c2.8-0.5,4.6-2.9,4.6-6.1C230.5,67.3,229.3,65.3,227.4,64.3z M189.3,69.3c-0.2-3.2-2.3-5.4-5.3-5.7
		c-3.1-0.2-5.7,1.7-6.3,4.8c-0.1,0.7-0.1,1.3-0.1,2c0.2,4.1,3.8,6.6,7.7,5.5c2.6-0.7,4.1-3,4.1-6C189.3,69.7,189.4,69.5,189.3,69.3z
		"/>
</g>
</svg>
