<?xml version="1.0" encoding="utf-8"?>
<!-- Generator: Adobe Illustrator 24.0.1, SVG Export Plug-In . SVG Version: 6.00 Build 0)  -->
<svg version="1.1" id="Camada_1" xmlns="http://www.w3.org/2000/svg" xmlns:xlink="http://www.w3.org/1999/xlink" x="0px" y="0px"
	 viewBox="0 0 300 300" style="enable-background:new 0 0 300 300;" xml:space="preserve">
<style type="text/css">
	.st0{fill:#6F8197;}
	.st1{fill:#FEFEFE;}
</style>
<g>
	<circle class="st0" cx="150" cy="150" r="147.14"/>
</g>
<path class="st1" d="M225.38,115.52c-6.06-7.89-12.2-15.72-18.08-23.75c-2.2-3.01-4.68-4.3-8.42-4.27
	c-16.28,0.14-32.56,0.06-48.84,0.06c-16.47,0-32.94,0.06-49.4-0.05c-3.31-0.02-5.59,1.15-7.55,3.78c-6.11,8.2-12.39,16.28-18.6,24.4
	c-1.99,2.61-2.13,4.59-0.45,7.4c14.66,24.45,29.35,48.9,43.98,73.37c1.24,2.08,2.81,3.56,5.03,4.57c7.68,3.5,15.31,7.12,22.93,10.75
	c1.89,0.9,3.67,0.95,5.6,0.11c8.17-3.55,16.33-7.11,24.55-10.52c2.71-1.12,4.64-2.81,6.14-5.33c14.51-24.33,29.1-48.61,43.66-72.9
	C227.69,120.23,227.51,118.3,225.38,115.52z M125.83,119.97c1.03-6.23,1.73-12.52,2.47-18.79c0.2-1.72,0.67-2.52,2.68-2.5
	c11.9,0.11,23.81,0.11,35.71,0c1.96-0.02,2.54,0.65,2.75,2.43c0.77,6.36,1.54,12.73,2.55,19.06c0.31,1.95-0.27,2.14-1.91,2.12
	c-7.16-0.07-14.32-0.03-21.48-0.03c0,0.05,0,0.11,0,0.16c-6.79,0-13.58-0.05-20.37,0.03C126.35,122.48,125.43,122.41,125.83,119.97z
	 M100.62,99.9c0.69-0.91,1.49-1.2,2.61-1.19c4.09,0.06,8.19,0.08,12.28-0.01c1.56-0.04,1.87,0.45,1.66,1.93
	c-0.88,6.26-1.65,12.53-2.45,18.79c-0.14,1.13-0.39,1.92-1.89,1.61c-7.98-1.69-15.98-3.31-24.45-5.05
	C92.64,110.39,96.65,105.16,100.62,99.9z M133.5,193.56c-4.23-1.28-6.83-4.18-9.06-7.98c-10.76-18.33-21.77-36.52-32.69-54.76
	c-0.52-0.87-1.03-1.74-1.84-3.12c8.21,1.71,15.83,3.31,23.46,4.86c1.09,0.22,1.77,0.57,2.2,1.72c7.58,20.23,15.21,40.43,22.88,60.76
	C136.36,195.64,135.09,194.04,133.5,193.56z M149.38,189.51c-0.09,0.23-0.29,0.42-0.72,1.01c-6.95-18.5-13.75-36.66-20.64-54.78
	c-0.72-1.9-0.22-2.19,1.55-2.19c12.93-0.01,25.87-0.06,38.8-0.16c1.63-0.01,1.84,0.37,1.27,1.89
	C162.85,153.35,156.13,171.43,149.38,189.51z M208.82,129.84c-11.71,19.59-23.46,39.16-35.15,58.76c-0.9,1.52-2.02,2.56-3.65,3.21
	c-3.75,1.51-7.47,3.12-11.4,4.78c2.04-5.41,3.95-10.42,5.83-15.45c5.63-15.11,11.29-30.21,16.84-45.35c0.73-2,1.79-2.8,3.9-3.17
	c8.12-1.43,16.19-3.13,24.32-4.74C209.85,128.79,209.15,129.28,208.82,129.84z M184.84,121.46c-1.15,0.24-1.45-0.25-1.58-1.25
	c-0.89-6.72-1.77-13.44-2.74-20.14c-0.19-1.31,0.45-1.34,1.39-1.34c5.11,0.02,10.22,0.03,15.33-0.01c0.96-0.01,1.54,0.43,2.07,1.12
	c3.99,5.24,7.99,10.48,12.33,16.18C202.45,117.87,193.64,119.64,184.84,121.46z"/>
</svg>
