<svg width="322" height="90" viewBox="0 0 322 90" fill="none" xmlns="http://www.w3.org/2000/svg">
<path d="M104.572 5.116H87.5983V0.699997H126.652V5.116H109.678V49H104.572V5.116ZM155.25 49.414C150.466 49.414 146.119 48.356 142.209 46.24C138.345 44.078 135.309 41.134 133.101 37.408C130.939 33.682 129.858 29.496 129.858 24.85C129.858 20.204 130.939 16.018 133.101 12.292C135.309 8.566 138.345 5.645 142.209 3.529C146.119 1.367 150.466 0.285998 155.25 0.285998C160.034 0.285998 164.335 1.344 168.153 3.46C172.017 5.576 175.053 8.52 177.261 12.292C179.469 16.018 180.573 20.204 180.573 24.85C180.573 29.496 179.469 33.705 177.261 37.477C175.053 41.203 172.017 44.124 168.153 46.24C164.335 48.356 160.034 49.414 155.25 49.414ZM155.25 44.86C159.068 44.86 162.518 44.009 165.6 42.307C168.682 40.559 171.097 38.167 172.845 35.131C174.593 32.049 175.467 28.622 175.467 24.85C175.467 21.078 174.593 17.674 172.845 14.638C171.097 11.556 168.682 9.164 165.6 7.462C162.518 5.714 159.068 4.84 155.25 4.84C151.432 4.84 147.959 5.714 144.831 7.462C141.749 9.164 139.311 11.556 137.517 14.638C135.769 17.674 134.895 21.078 134.895 24.85C134.895 28.622 135.769 32.049 137.517 35.131C139.311 38.167 141.749 40.559 144.831 42.307C147.959 44.009 151.432 44.86 155.25 44.86ZM210.095 0.699997C216.259 0.699997 221.089 2.172 224.585 5.116C228.081 8.06 229.829 12.108 229.829 17.26C229.829 22.412 228.081 26.46 224.585 29.404C221.089 32.302 216.259 33.751 210.095 33.751H197.123V49H192.017V0.699997H210.095ZM209.957 29.266C214.741 29.266 218.398 28.231 220.928 26.161C223.458 24.045 224.723 21.078 224.723 17.26C224.723 13.35 223.458 10.36 220.928 8.29C218.398 6.174 214.741 5.116 209.957 5.116H197.123V29.266H209.957ZM33.9354 89L22.8954 73.475C21.6534 73.613 20.3654 73.682 19.0314 73.682H6.0594V89H0.953403V40.7H19.0314C25.1954 40.7 30.0254 42.172 33.5214 45.116C37.0174 48.06 38.7654 52.108 38.7654 57.26C38.7654 61.032 37.7994 64.229 35.8674 66.851C33.9814 69.427 31.2674 71.29 27.7254 72.44L39.5244 89H33.9354ZM18.8934 69.335C23.6774 69.335 27.3344 68.277 29.8644 66.161C32.3944 64.045 33.6594 61.078 33.6594 57.26C33.6594 53.35 32.3944 50.36 29.8644 48.29C27.3344 46.174 23.6774 45.116 18.8934 45.116H6.0594V69.335H18.8934ZM81.1077 76.097H54.1977L48.4017 89H43.0887L65.1687 40.7H70.2057L92.2857 89H86.9037L81.1077 76.097ZM79.2447 71.957L67.6527 46.013L56.0607 71.957H79.2447ZM140.641 40.7V89H136.432L105.382 49.808V89H100.276V40.7H104.485L135.604 79.892V40.7H140.641ZM171.379 66.299L161.512 76.304V89H156.406V40.7H161.512V69.887L189.871 40.7H195.736L174.829 62.573L197.185 89H191.113L171.379 66.299ZM205.46 40.7H210.566V89H205.46V40.7ZM266.647 40.7V89H262.438L231.388 49.808V89H226.282V40.7H230.491L261.61 79.892V40.7H266.647ZM316.428 64.85H321.327V83.273C319.073 85.251 316.405 86.769 313.323 87.827C310.241 88.885 306.998 89.414 303.594 89.414C298.764 89.414 294.417 88.356 290.553 86.24C286.689 84.124 283.653 81.203 281.445 77.477C279.237 73.705 278.133 69.496 278.133 64.85C278.133 60.204 279.237 56.018 281.445 52.292C283.653 48.52 286.689 45.576 290.553 43.46C294.417 41.344 298.787 40.286 303.663 40.286C307.343 40.286 310.724 40.884 313.806 42.08C316.888 43.23 319.487 44.955 321.603 47.255L318.429 50.498C314.611 46.726 309.758 44.84 303.87 44.84C299.96 44.84 296.418 45.714 293.244 47.462C290.116 49.164 287.655 51.556 285.861 54.638C284.067 57.674 283.17 61.078 283.17 64.85C283.17 68.622 284.067 72.026 285.861 75.062C287.655 78.098 290.116 80.49 293.244 82.238C296.372 83.986 299.891 84.86 303.801 84.86C308.769 84.86 312.978 83.618 316.428 81.134V64.85Z" fill="#B62D2D"/>
</svg>
