<?xml version="1.0" encoding="utf-8"?>
<!-- Generator: Adobe Illustrator 24.0.1, SVG Export Plug-In . SVG Version: 6.00 Build 0)  -->
<svg version="1.1" id="Camada_1" xmlns="http://www.w3.org/2000/svg" xmlns:xlink="http://www.w3.org/1999/xlink" x="0px" y="0px"
	 viewBox="0 0 300 300" style="enable-background:new 0 0 300 300;" xml:space="preserve">
<style type="text/css">
	.st0{fill:#6F8197;}
	.st1{fill:#FFFFFF;}
</style>
<g>
	<circle class="st0" cx="150" cy="150" r="147.14"/>
	<path class="st1" d="M150.15,72.97c-4.14,0.13-6.57,2.33-7.91,6.18c-4.3,12.36-8.7,24.68-13.09,37.01
		c-2.19,6.15-4.08,7.5-10.58,7.75c-11.89,0.46-23.79,0.96-35.68,1.39c-4.39,0.16-8.05,1.37-9.55,6.01
		c-1.52,4.68,0.93,7.69,4.3,10.44c9.57,7.81,18.99,15.81,28.64,23.52c4.23,3.38,5.29,7.19,3.83,12.33
		c-3.46,12.15-6.56,24.41-9.93,36.59c-1.2,4.34-1.64,8.39,2.59,11.35c4.28,2.99,7.9,0.97,11.54-1.61
		c9.83-6.97,19.73-13.83,29.62-20.71c4.96-3.45,7.2-3.43,12.26,0.09c10.02,6.97,20.05,13.91,30,20.96
		c3.58,2.54,7.15,4.08,11.16,1.19c3.99-2.87,3.72-6.77,2.57-10.97c-3.35-12.18-6.41-24.45-9.94-36.58
		c-1.62-5.57-0.28-9.47,4.2-13.03c9.56-7.59,18.85-15.51,28.31-23.22c3.24-2.64,5.59-5.57,4.28-10.05
		c-1.36-4.65-4.88-6.12-9.34-6.28c-11.75-0.43-23.49-0.95-35.23-1.38c-7.43-0.27-9.14-1.45-11.57-8.33
		c-4.27-12.05-8.58-24.09-12.75-36.18C156.55,75.63,154.33,73.22,150.15,72.97z"/>
</g>
</svg>
