<?xml version="1.0" encoding="utf-8"?>
<!-- Generator: Adobe Illustrator 24.0.1, SVG Export Plug-In . SVG Version: 6.00 Build 0)  -->
<svg version="1.1" id="Camada_1" xmlns="http://www.w3.org/2000/svg" xmlns:xlink="http://www.w3.org/1999/xlink" x="0px" y="0px"
	 viewBox="0 0 300 300" style="enable-background:new 0 0 300 300;" xml:space="preserve">
<style type="text/css">
	.st0{fill:#FFFFFF;}
</style>
<g>
	<path class="st0" d="M232.57,285.07c-1.06,0-2.11,0-3.17,0c-2.92-1.74-5.92-3.35-8.75-5.23c-13.18-8.72-26.31-17.51-39.46-26.27
		c-10.37-6.91-20.74-13.82-31.16-20.76c-0.95,0.61-1.83,1.17-2.71,1.75c-22.94,15.29-45.86,30.61-68.83,45.85
		c-2.67,1.77-5.61,3.12-8.43,4.67c-0.7,0-1.41,0-2.11,0c-3.89-1.12-6.63-3.47-7.91-7.39c0-1.23,0-2.46,0-3.69
		c0.19-0.48,0.43-0.95,0.55-1.44c8.44-33.69,16.84-67.39,25.35-101.06c0.52-2.07,0.15-3.36-1.28-4.86
		c-10.62-11.16-17.93-24.22-21.71-39.16c-1.28-5.07-1.96-10.3-2.91-15.46c0-4.75,0-9.5,0-14.25c0.16-0.58,0.4-1.15,0.46-1.73
		c3.66-37.17,30.25-68.5,66.41-77.95c5.57-1.46,11.35-2.12,17.03-3.15c4.05,0,8.09,0,12.14,0c2.16,0.32,4.31,0.67,6.47,0.97
		c36.02,4.88,66.24,32.1,74.74,67.45c1.14,4.75,1.79,9.61,2.67,14.42c0,4.75,0,9.5,0,14.25c-0.14,0.41-0.37,0.81-0.41,1.22
		c-2,20.86-10.35,38.82-24.75,53.98c-1.13,1.19-1.22,2.22-0.83,3.75c6.68,26.53,13.28,53.09,19.94,79.63
		c1.96,7.81,4.03,15.6,6.05,23.39c0,1.23,0,2.46,0,3.69C238.75,281.4,236.21,283.78,232.57,285.07z M198.02,181.25
		c-32.25,18.4-64.09,18.34-96.04,0.01c-6.15,24.61-12.26,49.06-18.52,74.14c1.45-0.91,2.27-1.39,3.06-1.92
		c19.08-12.71,38.16-25.44,57.24-38.15c4.81-3.21,7.7-3.19,12.57,0.06c19.01,12.67,38.01,25.34,57.02,38.01
		c0.86,0.57,1.73,1.12,3.22,2.07C210.28,230.31,204.16,205.85,198.02,181.25z M150.09,60.08c-2.42,0.07-3.83,1.36-4.62,3.6
		c-2.51,7.21-5.08,14.4-7.63,21.59c-1.27,3.59-2.38,4.37-6.17,4.52c-6.94,0.27-13.88,0.56-20.82,0.81c-2.56,0.09-4.69,0.8-5.57,3.51
		c-0.89,2.73,0.54,4.48,2.51,6.09c5.58,4.56,11.08,9.22,16.71,13.72c2.47,1.97,3.08,4.19,2.23,7.19
		c-2.02,7.09-3.83,14.24-5.79,21.34c-0.7,2.53-0.96,4.9,1.51,6.62c2.5,1.74,4.61,0.56,6.73-0.94c5.73-4.06,11.51-8.07,17.28-12.08
		c2.89-2.01,4.2-2,7.15,0.05c5.84,4.06,11.69,8.11,17.5,12.23c2.09,1.48,4.17,2.38,6.51,0.7c2.33-1.67,2.17-3.95,1.5-6.4
		c-1.96-7.11-3.74-14.26-5.8-21.34c-0.95-3.25-0.16-5.52,2.45-7.6c5.57-4.43,10.99-9.05,16.51-13.54c1.89-1.54,3.26-3.25,2.5-5.86
		c-0.79-2.71-2.84-3.57-5.45-3.67c-6.85-0.25-13.7-0.55-20.55-0.81c-4.33-0.16-5.33-0.85-6.75-4.86c-2.49-7.03-5-14.05-7.44-21.1
		C153.82,61.63,152.52,60.23,150.09,60.08z"/>
</g>
</svg>
